<svg id="Capa_1" data-name="Capa 1" xmlns="http://www.w3.org/2000/svg" viewBox="0 0 550 200"><defs><style>.cls-1{fill:#1a4f07;}.cls-1,.cls-14{fill-rule:evenodd;}.cls-2{fill:#00b775;}.cls-3{fill:#f8b133;}.cls-3,.cls-7{stroke:#005980;}.cls-4,.cls-7{fill:#fff;}.cls-5{fill:#234c2b;}.cls-6{fill:#fcfcfc;}.cls-7{stroke-width:0.97px;}.cls-8{fill:#1c7f00;}.cls-9{fill:#dfef84;}.cls-10{fill:#eaea1f;}.cls-11{fill:#56b756;}.cls-12{fill:#1d1d1b;}.cls-13{fill:#ceceb8;}.cls-14{fill:#bd1622;}.cls-15{fill:#b1b28f;}</style></defs><title>escenarioFin</title><polyline class="cls-1" points="276.29 131.27 297.35 130.77 336.88 133.18 432.61 132.36 470 136.95 474.35 126.95 468.15 101.99 296.91 101.99"/><path class="cls-2" d="M349,114.42s-1.22-27.75-78.52-21.48l5.47,26s-6.69,9-1.83,12.53l23.27-.66a20.54,20.54,0,1,1,39.53,2.41l95.72-.83A20.53,20.53,0,1,1,470,137l5.57.74L474.35,127l-.61-9,6.09-18.8S489,94.72,489,84.88C489,84.88,400.09,81.3,349,114.42Z"/><ellipse class="cls-3" cx="271.35" cy="99.45" rx="3.46" ry="1.97"/><ellipse class="cls-3" cx="272.37" cy="102.8" rx="3.46" ry="1.97"/><ellipse class="cls-3" cx="273.38" cy="105.97" rx="3.46" ry="1.97"/><path class="cls-4" d="M338.87,131.27h88.77s-7.52-7.37.36-11.05c0,0-9.67-1.05-6.8,6.84Z"/><path class="cls-5" d="M422,89.35l-6.69-24.17,8.78.77s-61.74-41.05-122,29.66l28.61,7.16s-7.91-39.39,79.13-37.6Z"/><path class="cls-4" d="M480.85,88.06s-71.4-4.36-131.13,28.5c0,0,60.52-28.5,125.39-26.76Z"/><path class="cls-6" d="M347.94,116s-1-18.91-45.1-21.81C302.85,94.17,338.45,98,347.94,116Z"/><path class="cls-6" d="M415.57,126.17s-.74-.9.25-5.37l-79.94,5.82Z"/><ellipse class="cls-7" cx="324.3" cy="86.22" rx="3.96" ry="5.82"/><polyline points="414.36 90.83 407.29 84.88 409.11 78.64 401.23 92.01 406.28 87.26 412.94 91.42"/><path class="cls-8" d="M375.49,95.48l-1.73-13.57c1.21-2.08,4.85-.59,4.85-.59l3.58,13.47,15.2-1.59h.4c-25,4.45-48.48,19.61-48.48,19.61A17.14,17.14,0,0,0,337.6,99.44Z"/><path class="cls-9" d="M299.62,93.2s-6.26-18.72-13.74-23.47c0,0,9.5,11,12.12,23.47Z"/><ellipse class="cls-10" cx="286.29" cy="69.73" rx="1.21" ry="1.78"/><path class="cls-6" d="M477.82,99.07s-10.82-2.39-45.26,2.4c0,0,41.77-2.22,41.19.34s-16.39,2.31-16.39,2.31,16,.6,14.76,3.34-6.71,2.1-6.71,2.1l7.52,3.89s3.83-8.93,4.89-14"/><path class="cls-6" d="M274.62,96.33s25.62-5.57,51.81,9.41c0,0-32.31-1.93-48.9,7.49,0,0,8.59-9.41,31.44-10.27,0,0-15.72-4.07-32.16,1.28,0,0,1.89-4.5,25-4.92C301.83,99.32,285.68,94.83,274.62,96.33Z"/><path class="cls-11" d="M417.35,63.68s-69.15-5.26-82.26,21C335.08,84.72,340.19,55.42,417.35,63.68Z"/><path class="cls-3" d="M485.47,91.65c2.42-3.58,3.17-5.71,1.54-5.75-1.89,0-5.71,2.91-8.12,6.48s-2.21,6.88-.64,6.48S483.05,95.23,485.47,91.65Z"/><ellipse class="cls-12" cx="454.45" cy="125.72" rx="19.16" ry="19.28"/><ellipse class="cls-13" cx="454.45" cy="125.71" rx="13.24" ry="13.33"/><path class="cls-14" d="M455.41,116c-.53-3.87-1.39-3.87-1.92,0a6.71,6.71,0,0,1-7.86,5.78c-3.8-.69-4.06.14-.59,1.84a6.82,6.82,0,0,1,3,9.35c-1.82,3.44-1.12,4,1.55,1.14a6.65,6.65,0,0,1,9.72,0c2.67,2.82,3.37,2.3,1.55-1.14a6.82,6.82,0,0,1,3-9.35c3.47-1.7,3.21-2.53-.59-1.84A6.71,6.71,0,0,1,455.41,116Z"/><ellipse class="cls-15" cx="454.45" cy="125.71" rx="4.5" ry="4.53"/><ellipse class="cls-12" cx="320.34" cy="126.61" rx="19.16" ry="19.28"/><ellipse class="cls-13" cx="320.34" cy="126.61" rx="13.24" ry="13.33"/><path class="cls-14" d="M321.3,116.87c-.53-3.87-1.39-3.87-1.92,0a6.71,6.71,0,0,1-7.87,5.78c-3.8-.69-4.06.14-.59,1.84a6.82,6.82,0,0,1,3,9.35c-1.82,3.44-1.12,4,1.55,1.14a6.65,6.65,0,0,1,9.72,0c2.67,2.82,3.37,2.3,1.55-1.14a6.82,6.82,0,0,1,3-9.35c3.47-1.7,3.21-2.53-.59-1.84A6.71,6.71,0,0,1,321.3,116.87Z"/><ellipse class="cls-15" cx="320.34" cy="126.61" rx="4.5" ry="4.53"/></svg>