<svg id="Layer_1" data-name="Layer 1" xmlns="http://www.w3.org/2000/svg" viewBox="0 0 240.39 226.41"><defs><style>.cls-1{fill:#ea8e10;}.cls-2{fill:#231f20;}.cls-3{fill:#f5a909;}.cls-4{fill:#12100b;}.cls-4,.cls-7{stroke:#4d4947;}.cls-4,.cls-9{stroke-width:6px;}.cls-5{fill:#d0d0d0;stroke-width:4px;}.cls-5,.cls-6{stroke:#231f20;}.cls-6,.cls-8{fill:#fff;}.cls-6{stroke-width:2px;}.cls-7,.cls-9{fill:none;}.cls-7{stroke-width:5px;}.cls-9{stroke:#13110c;}.cls-10{fill:#e30613;stroke:#dd1215;stroke-width:0.23px;}.cls-11{fill:#d4d4d4;}.cls-12{font-size:12px;font-family:MyriadPro-Regular, Myriad Pro;}.cls-13{letter-spacing:-0.03em;}.cls-14{letter-spacing:-0.05em;}.cls-15{letter-spacing:0.01em;}</style></defs><title>Mesa de trabajo 1</title><path class="cls-1" d="M168,16.67a344,344,0,0,0-49.38-3.21,355.33,355.33,0,0,0-46.23,2.76V40.46H36.65v93.13H203.79V40.91H168V16.67Z"/><path class="cls-2" d="M168,47.87V16.77c18.29,3.17,30.14,8.17,30.14,13.81a5.72,5.72,0,0,1,5.63,5.8V47.87Z"/><path class="cls-2" d="M72.41,47.37V16.27c-18.29,3.17-30.14,8.17-30.14,13.81a5.72,5.72,0,0,0-5.63,5.8V47.37Z"/><path class="cls-3" d="M213.1,132.78c-4.23-4.22-12.78-4.51-19.15-8.11-25.55-14.45-43.26-19-73.16-19h-1.14c-29.9,0-47.61,4.58-73.16,19-6.37,3.6-14.92,3.89-19.15,8.11-12,12-4.39,38-4.39,38A1.24,1.24,0,0,0,24.19,172H216.25a1.24,1.24,0,0,0,1.24-1.25S225.14,144.82,213.1,132.78Z"/><path class="cls-3" d="M143.33,14.19c0-2.86-9.3-9.33-23.24-9.33s-23,6.47-23,9.33"/><path class="cls-2" d="M216,172H24.43c-.73,0-1.31.83-1.31,1.86l3.52,8.5c0,1.08.56,2,1.25,2h13.4v26.13A1.48,1.48,0,0,0,42.69,212H81.94a1.48,1.48,0,0,0,1.39-1.55V194.13h72.94v16.33a1.48,1.48,0,0,0,1.4,1.55h39.84a1.48,1.48,0,0,0,1.4-1.55V184.33h13.63c.7,0,1.27-.89,1.27-2l3.52-8.5C217.32,172.83,216.73,172,216,172Z"/><path class="cls-4" d="M162.68,155.44a7.06,7.06,0,0,1-7.06,7.06H84.82a7.06,7.06,0,0,1-7.06-7.06V128.88a7.06,7.06,0,0,1,7.06-7.07h70.79a7.06,7.06,0,0,1,7.06,7.07v26.56Z"/><path class="cls-5" d="M213.37,147.78a15.25,15.25,0,1,1-15.26-15.25A15.25,15.25,0,0,1,213.37,147.78Z"/><path class="cls-6" d="M207.56,147.78a9.44,9.44,0,1,1-9.44-9.44A9.44,9.44,0,0,1,207.56,147.78Z"/><path class="cls-5" d="M57.57,147.78a15.25,15.25,0,1,1-15.26-15.25A15.25,15.25,0,0,1,57.57,147.78Z"/><path class="cls-6" d="M51.76,147.78a9.44,9.44,0,1,1-9.44-9.44A9.44,9.44,0,0,1,51.76,147.78Z"/><line class="cls-7" x1="79.83" y1="138.49" x2="160.61" y2="138.49"/><line class="cls-7" x1="79.83" y1="130.11" x2="160.61" y2="130.11"/><line class="cls-7" x1="79.83" y1="146.87" x2="160.61" y2="146.87"/><line class="cls-7" x1="79.83" y1="155.25" x2="160.61" y2="155.25"/><path class="cls-8" d="M115.52,91.79A1.25,1.25,0,0,1,114.27,93H43.56a1.25,1.25,0,0,1-1.25-1.25V57.37a1.25,1.25,0,0,1,1.25-1.25h70.71a1.25,1.25,0,0,1,1.24,1.25Z"/><path class="cls-8" d="M198.12,91.79A1.25,1.25,0,0,1,196.88,93h-70.7a1.26,1.26,0,0,1-1.26-1.25V57.37a1.26,1.26,0,0,1,1.26-1.25h70.7a1.25,1.25,0,0,1,1.24,1.25Z"/><path class="cls-2" d="M28.25,86.56A1.24,1.24,0,0,1,27,87.8H10.2A1.25,1.25,0,0,1,9,86.56v-24a1.25,1.25,0,0,1,1.25-1.24H27a1.23,1.23,0,0,1,1.24,1.24Z"/><path class="cls-9" d="M18.6,87.8c0,5.76,8,10.42,17.89,10.42"/><path class="cls-2" d="M212.14,86.56a1.25,1.25,0,0,0,1.24,1.24H230.2a1.25,1.25,0,0,0,1.24-1.24v-24a1.25,1.25,0,0,0-1.24-1.24H213.38a1.25,1.25,0,0,0-1.24,1.24Z"/><path class="cls-9" d="M221.79,87.8c0,5.76-8,10.42-17.88,10.42"/><path class="cls-10" d="M173.45,34.68A10.6,10.6,0,1,0,184,24.09,10.59,10.59,0,0,0,173.45,34.68Z"/><path class="cls-10" d="M44.56,34.68a10.6,10.6,0,1,0,10.58-10.6A10.59,10.59,0,0,0,44.56,34.68Z"/><path d="M144.93,93a47.92,47.92,0,0,0,.72-6c.1-1.88.14-3.77.19-5.65a31.27,31.27,0,0,1,5-16.49A22.45,22.45,0,0,1,160,56.62a17.66,17.66,0,0,1,10.65-1.52,19.36,19.36,0,0,1,10.42,5.39,28.11,28.11,0,0,1,7.82,14.33,31.69,31.69,0,0,1,.82,6.86,52.36,52.36,0,0,0,.5,7.42A34,34,0,0,0,191.1,93h.56a37.11,37.11,0,0,1-1.28-8c-.08-1.62-.07-3.24-.16-4.86a31.67,31.67,0,0,0-3.63-13.28,24,24,0,0,0-10.83-10.8,17.79,17.79,0,0,0-6.16-1.71l-1.24-.13h-1c-.13,0-.25,0-.38,0a18.64,18.64,0,0,0-9.14,2.84,24.27,24.27,0,0,0-8.2,8.54,31.89,31.89,0,0,0-4.33,14.84c-.13,2.59-.16,5.19-.34,7.78A42.56,42.56,0,0,1,144.4,93Z"/><path class="cls-11" d="M191.1,93a34,34,0,0,1-.85-3.91,52.36,52.36,0,0,1-.5-7.42,31.69,31.69,0,0,0-.82-6.86,28.11,28.11,0,0,0-7.82-14.33,19.36,19.36,0,0,0-10.42-5.39A17.66,17.66,0,0,0,160,56.62a22.45,22.45,0,0,0-9.21,8.26,31.27,31.27,0,0,0-5,16.49c-.06,1.88-.09,3.77-.19,5.65a47.92,47.92,0,0,1-.72,6ZM156.57,69.84a5,5,0,0,1,8.2.52c.27.39.5.82.76,1.26l.23-.45A5.46,5.46,0,0,1,170.34,68a5,5,0,0,1,4.21,2,8.12,8.12,0,0,1,0,10c-2.5,2.93-6.52,2.55-8.53-.82-.17-.28-.31-.57-.5-.91-.09.17-.16.32-.23.46a5.44,5.44,0,0,1-4.63,3.23,5.08,5.08,0,0,1-4.42-2.31A8.12,8.12,0,0,1,156.57,69.84Z"/><path d="M165.53,71.62l.23-.45A5.46,5.46,0,0,1,170.34,68a5,5,0,0,1,4.21,2,8.12,8.12,0,0,1,0,10c-2.5,2.93-6.52,2.55-8.53-.82-.17-.28-.31-.57-.5-.91-.09.17-.16.32-.23.46a5.44,5.44,0,0,1-4.63,3.23,5.08,5.08,0,0,1-4.42-2.31,8.12,8.12,0,0,1,.34-9.72,5,5,0,0,1,8.2.52C165,70.75,165.27,71.18,165.53,71.62Zm-10.18,3.21a7.32,7.32,0,0,0,1.44,4.5A4.45,4.45,0,0,0,162,81a5.61,5.61,0,0,0,3.12-3.5c.07-.2.11-.5.37-.43s.29.27.36.45a7.19,7.19,0,0,0,1.13,2,4.4,4.4,0,0,0,6.66.49,7.38,7.38,0,0,0,.37-9.7A4.34,4.34,0,0,0,168.69,69a5.68,5.68,0,0,0-2.81,3.35c-.07.2-.1.46-.36.47s-.28-.26-.38-.45a13.22,13.22,0,0,0-1-1.78,4.39,4.39,0,0,0-6.95-.59A6.84,6.84,0,0,0,155.35,74.83Z"/><path class="cls-8" d="M155.35,74.83A6.84,6.84,0,0,1,157.24,70a4.39,4.39,0,0,1,6.95.59,13.22,13.22,0,0,1,1,1.78c.1.19.11.45.38.45s.29-.27.36-.47A5.68,5.68,0,0,1,168.69,69,4.34,4.34,0,0,1,174,70.25a7.38,7.38,0,0,1-.37,9.7,4.4,4.4,0,0,1-6.66-.49,7.19,7.19,0,0,1-1.13-2c-.07-.18-.21-.41-.36-.45s-.29.23-.37.43A5.61,5.61,0,0,1,162,81a4.45,4.45,0,0,1-5.23-1.63A7.32,7.32,0,0,1,155.35,74.83Zm6.46,3.74a2.41,2.41,0,0,0,2.37-2.44,2.34,2.34,0,1,0-2.37,2.44Zm7.39,0a2.41,2.41,0,0,0,2.41-2.41,2.45,2.45,0,0,0-2.25-2.61,2.52,2.52,0,0,0-.16,5Z"/><path d="M161.81,78.57a2.52,2.52,0,1,1,2.37-2.44A2.41,2.41,0,0,1,161.81,78.57Z"/><path d="M169.2,78.57a2.52,2.52,0,1,1,2.41-2.41A2.41,2.41,0,0,1,169.2,78.57Z"/><path class="cls-9" d="M183.93,93c0-9-9.75-15.58-18.49-15.58S147,84.13,147,93"/><text class="cls-12" transform="translate(83.2 36.21)">GHBUS<tspan class="cls-13" x="35.76" y="0">O</tspan><tspan class="cls-14" x="43.73" y="0">T</tspan><tspan class="cls-15" x="49.08" y="0">-</tspan><tspan x="52.93" y="0">CRN</tspan></text></svg>